<svg id="Scan-Alt--Streamline-Carbon" xmlns="http://www.w3.org/2000/svg" viewBox="0 0 16 16" height="16" width="16"><desc>Scan Alt Streamline Icon: https://streamlinehq.com</desc><defs></defs><path d="M11 12H5a1 1 0 0 1 -1 -1v-1.5h1v1.5h6v-1.5h1v1.5a1 1 0 0 1 -1 1Z" fill="#000000" stroke-width="0.5"></path><path d="M1 7.49995h14v1H1Z" fill="#000000" stroke-width="0.5"></path><path d="M12 6.5h-1v-1.5H5v1.5H4v-1.5a1 1 0 0 1 1 -1h6a1 1 0 0 1 1 1Z" fill="#000000" stroke-width="0.5"></path><path d="m15 5 -1 0 0 -3 -3 0 0 -1 4 0 0 4z" fill="#000000" stroke-width="0.5"></path><path d="m2 5 -1 0 0 -4 4 0 0 1 -3 0 0 3z" fill="#000000" stroke-width="0.5"></path><path d="m5 15 -4 0 0 -4 1 0 0 3 3 0 0 1z" fill="#000000" stroke-width="0.5"></path><path d="m15 15 -4 0 0 -1 3 0 0 -3 1 0 0 4z" fill="#000000" stroke-width="0.5"></path><path id="_Transparent_Rectangle_" d="M0 0h16v16H0Z" fill="none" stroke-width="0.5"></path></svg>